<svg xmlns="http://www.w3.org/2000/svg" viewBox="0 0 32 32" fill="none">
  <rect width="32" height="32" rx="8" fill="url(#g)"/>
  <path d="M8 22V10h4.2c2.4 0 3.9 1.2 3.9 3.1 0 1.3-.7 2.2-1.9 2.7l2.8 6.2h-2.6l-2.4-5.5H10.2V22H8zm2.2-7.2h1.9c1.2 0 1.9-.6 1.9-1.5s-.7-1.5-1.9-1.5h-1.9v3zM18.2 22l3.6-12h2.3L27.8 22h-2.3l-.8-2.6h-4.2L19.7 22h-1.5zm3.1-4.6h2.9l-1.4-4.5-1.5 4.5z" fill="white"/>
  <defs>
    <linearGradient id="g" x1="0" y1="0" x2="32" y2="32" gradientUnits="userSpaceOnUse">
      <stop stop-color="#06b6d4"/>
      <stop offset="1" stop-color="#2563eb"/>
    </linearGradient>
  </defs>
</svg>
